<svg xmlns="http://www.w3.org/2000/svg" xmlns:xlink="http://www.w3.org/1999/xlink" viewBox="0 0 34 41" fill="#fff" fill-rule="evenodd" stroke="#000" stroke-linecap="round" stroke-linejoin="round"><use xlink:href="#A" x=".5" y=".5"/><symbol id="A" overflow="visible"><g fill="#231f20" fill-rule="nonzero" stroke="none"><path d="M0 29.387h22.412v3.776H0z"/><path d="M1.419 33.163h3.628v6.664H1.419zm15.81 0h3.628v6.664h-3.628zm-6.023-9.132h9.429v5.356h-9.429z"/><path d="M12.664 24.353L29.57.003l1.125.781-16.906 24.35zM31.581 1.384L16.204 26.807l.889.617 15.13-25.583z"/><path d="M29.568 0l2.707 1.879-.542.781L29.026.781zM13.115 23.679l4.369 3.034-.457.659-4.369-3.034z"/><path d="M31.34 2.234l.106.38-3.293.918-.106-.38z"/><path d="M28.291 3.276l.883 3.315-.382.102-.883-3.315z"/><path d="M28.939 6.451l.07.389-3.632.653-.07-.389z"/><path d="M25.521 7.26l.763 4.101-.388.072-.763-4.101z"/><path d="M26.072 11.214l.059.39-4.039.613-.059-.39z"/><path d="M22.249 11.974l1.016 4.199-.384.093-1.016-4.199z"/><path d="M23.064 16.016l.033.393-4.181.355-.033-.393z"/><path d="M19.082 16.522l1.278 4.615-.381.105-1.278-4.615z"/><path d="M20.166 21.002l.033.394-4.39.37-.033-.394z"/><path d="M15.987 21.503l1.403 4.951-.38.108-1.403-4.951z"/><path d="M18.544 23.297l.069.389-5.127.916-.069-.389z"/><path d="M17.337 19.025l1.427 4.403-.376.122-1.427-4.403z"/><path d="M21.524 18.22l.06.39-4.404.678-.06-.39z"/><path d="M20.851 14.497l.887 3.874-.385.088-.887-3.874z"/><path d="M24.473 13.509l.084.386-3.835.833-.084-.386z"/><path d="M23.717 10.351l.969 3.291-.379.111-.969-3.291z"/><path d="M27.403 8.606l.15.365-3.949 1.623-.15-.365z"/><path d="M27.252 5.294l.417 3.467-.392.047-.417-3.467z"/><path d="M29.92 4.44l.091.384-2.894.685-.091-.384z"/><path d="M29.557 1.953l.593 2.637-.385.087-.593-2.637zM3.542 13.689h.728v16.217h-.728zm4.06.098h.728v16.217h-.728z"/><path d="M2.888 10.986h6.047v5.035H2.888z"/><path d="M3.912 9.875h1.444v1.111H3.912zm1.222 5.06h.321v14.452h-.321zm1.247 0h.321v14.452h-.321z"/><use xlink:href="#C"/><use xlink:href="#C" y="0.864"/><use xlink:href="#C" y="1.716"/><use xlink:href="#C" y="2.579"/><use xlink:href="#C" y="3.443"/><use xlink:href="#C" y="4.307"/><use xlink:href="#C" y="5.171"/><use xlink:href="#C" y="6.035"/><use xlink:href="#C" y="6.899"/><use xlink:href="#C" y="7.763"/><use xlink:href="#C" y="8.627"/><use xlink:href="#C" y="9.491"/><use xlink:href="#C" y="10.354"/><use xlink:href="#C" y="11.218"/><use xlink:href="#C" y="12.082"/></g></symbol><defs ><path id="C" d="M5.294 16.527H6.54v.259H5.294z"/></defs></svg>