<svg xmlns="http://www.w3.org/2000/svg" xmlns:xlink="http://www.w3.org/1999/xlink" viewBox="0 0 41 37" fill="#fff" fill-rule="evenodd" stroke="#000" stroke-linecap="round" stroke-linejoin="round"><use xlink:href="#A" x=".5" y=".5"/><symbol id="A" overflow="visible"><g fill="#231f20" fill-rule="nonzero" stroke="none"><path d="M3.468 16.426h32.668v.716H3.468zm1.32 2.95h30.088v.716H4.788zm-1.32 2.937h32.668v.716H3.468z"/><use xlink:href="#C"/><use xlink:href="#C" x="3.332"/><use xlink:href="#C" x="6.664"/><use xlink:href="#C" x="10.008"/><use xlink:href="#C" x="13.341"/><use xlink:href="#C" x="16.685"/><use xlink:href="#C" x="20.017"/><use xlink:href="#C" x="23.362"/><use xlink:href="#C" x="26.694"/><use xlink:href="#C" x="30.038"/><path d="M4.776 18.055h30.039v.284H4.776zm.358 2.987h30.039v.284H5.134zm13.131 8.972l.197-.037.197-.025.395-.037c.247-.025.506-.025.753-.037h0 .012 0 0l.753.037.395.037.197.025.197.037.395.074.037.012v-7.072h-3.962V30.1l.037-.012.395-.074zm-12.625.58l.086-.012h.037.074l.358-.025c.123 0 .234-.025.358-.012l.358.012h.185l.185.012.37.037c.494.062.987.173 1.444.321.062.025.123.037.173.062v-7.948H5.331v7.602l.136-.025.173-.025zm26.324.001l.37-.037.185-.012h.197l.383-.012h.173l.16.012.321.025h.025.012.037 0 .049l.086.012.173.025.148.025v-7.615H30.36v7.948c.062-.025.123-.037.185-.062.432-.136.926-.234 1.419-.309z"/><path d="M19.808 29.878h0 0 0zm-.012 0h0z"/><path d="M19.808 29.878h0zm19.758 4.123a11.21 11.21 0 0 0-1.197-.506l-1.222-.358-.617-.123-.617-.086-.617-.049-.309-.012h-.309-.309l-.309.012-.148.012h-.074-.037 0c-.025 0 .025 0 .012 0h-.012-.025l-.321.037-.16.012a.53.53 0 0 0-.148.025l-.272.049-.136.025-.136.037-.284.074c-.37.111-.728.234-1.074.407l-1.111.568c-.395.21-.839.407-1.308.58s-.975.259-1.481.321l-.37.025-.185.012h-.049-.025 0-.049-.012-.086-.321-.086-.037-.049l-.197-.012-.407-.037-.383-.062-.37-.086-.37-.099c-.494-.148-.926-.346-1.333-.518l-1.111-.457c-.086-.037-.173-.049-.259-.086-.086-.025-.173-.062-.259-.074l-.259-.062-.259-.049-.136-.025-.136-.012-.272-.025-.555-.025v-2.419h.012v2.419l-.555.025-.272.025-.136.012-.136.025-.259.049-.259.062c-.086.012-.173.049-.259.074l-.259.086c-.346.111-.703.284-1.111.457-.395.173-.839.383-1.333.518-.481.148-1 .259-1.506.284-.259.025-.506.025-.753.025h-.099-.012-.049 0-.025-.037l-.16-.012-.321-.025-.395-.062-.197-.025-.185-.037-.37-.086-.358-.111c-.469-.16-.913-.37-1.308-.58l-1.111-.568c-.358-.173-.716-.296-1.074-.407-.37-.099-.753-.185-1.148-.222l-.296-.037h-.025-.012.012 0-.037-.086l-.16-.012-.321-.012h-.296-.296l-.309.012c-.21 0-.407.037-.617.049s-.407.062-.617.086l-.617.123c-.407.086-.815.21-1.222.358a9.26 9.26 0 0 0-1.197.506c.148-.16.321-.296.494-.432l.531-.395c.37-.247.753-.469 1.16-.666l.617-.272.642-.234a5.64 5.64 0 0 1 .654-.185l.333-.086.346-.062.346-.062.321-.037.16-.012.086-.012h.037.062l.346-.012.346-.012.358.012.173.012.173.012.358.037c.469.074.95.185 1.395.333l1.259.469a9.42 9.42 0 0 0 1.098.358l.259.062.259.037.136.025.123.012.247.012h.321.16.037.025 0-.037.012.074c.185-.025.37-.012.543-.049.358-.037.691-.136 1.024-.259a12.28 12.28 0 0 0 1.061-.469l1.271-.58a3.07 3.07 0 0 1 .358-.123c.124-.037.234-.086.358-.111l.37-.099.37-.074.185-.037.185-.025.37-.037c.247-.025.494-.025.74-.037v2.419h-.012v-2.419l.74.037.37.037.185.025.185.037.37.074.37.099c.123.025.247.074.358.111l.358.123c.469.173.889.395 1.271.58l1.061.469c.086.037.173.062.247.086.086.025.173.062.247.074l.259.062.234.037.123.025h.025.037.086l.321.025h.086.012c-.012 0 .049 0-.037 0h0 .012.037.136.272c.358-.025.716-.062 1.061-.148a8.72 8.72 0 0 0 1.098-.358l1.259-.469a8.83 8.83 0 0 1 1.395-.333l.358-.037.173-.012.185-.012.37-.012h.173l.16.012.321.012h.062.037l.086.012.173.012.346.037c.111.012.222.037.346.062l.333.062.333.086a5.64 5.64 0 0 1 .654.185c.222.062.432.148.642.222l.617.272c.407.185.79.42 1.16.666.185.123.358.259.531.395a2.1 2.1 0 0 1 .592.432zM23.954 2.85l.816.135-2.284 13.832-.816-.135zm6.995 13.834l-.816.135-2.284-13.832.816-.135zM25.892 2.826h.827v14.02h-.827z"/><path d="M23.757 15.945h5.097v.901h-5.097zm-.173-13.366h5.443V3.9h-5.443z"/><path d="M24.658 1.506h3.295v1.321h-3.295z"/><path d="M25.51.296h1.629v1.456H25.51zm-1.543 4.172h4.677v.296h-4.677zm0 2.628h4.677v.296h-4.677z"/><path d="M24.118 4.553l4.495 2.429-.141.261-4.495-2.429z"/><path d="M28.621 4.804l-4.495 2.429-.141-.261 4.495-2.429zm-4.908 2.408l5.296 2.484-.126.268-5.296-2.484z"/><path d="M29.017 7.465l-5.296 2.484-.126-.268 5.296-2.484zm-5.77 2.42l6.238 2.414-.107.276-6.238-2.414z"/><path d="M29.397 10.18l-6.146 2.378-.107-.276 6.146-2.378zm-6.278 2.381l6.775 2.386-.098.279-6.775-2.386z"/><path d="M29.586 12.828l-6.891 2.274-.093-.281 6.891-2.274zm-6.298-3.091h6.023v.296h-6.023z"/><path d="M22.856 12.366h6.886v.296h-6.886zm-.641 2.641h8.182v.296h-8.182zM27.102.605h-1.604a.19.19 0 0 1-.185-.185V.185A.19.19 0 0 1 25.497 0h1.604a.19.19 0 0 1 .185.185V.42c0 .099-.074.185-.185.185zm-2.678 15.13h.778v.21h-.778zm2.986 0h.778v.21h-.778zM7.763 8.577h10.009v8.195H7.763z"/></g><path d="M8.478 9.515h1.691v6.22H8.478z" fill-rule="nonzero" stroke="none"/><path d="M9.268 7.392h4.184v1.185H9.268z" fill="#231f20" fill-rule="nonzero" stroke="none"/></symbol><defs ><path id="C" d="M4.431 16.772h.716v5.899h-.716z"/></defs></svg>