<svg xmlns="http://www.w3.org/2000/svg" xmlns:xlink="http://www.w3.org/1999/xlink" viewBox="0 0 32 62" fill="#fff" fill-rule="evenodd" stroke="#000" stroke-linecap="round" stroke-linejoin="round"><use xlink:href="#A" x=".5" y=".5"/><symbol id="A" overflow="visible"><g fill="#231f20" fill-rule="nonzero" stroke="none"><path d="M30.076 60.034H.617A.62.62 0 0 1 0 59.417v-2.419a.62.62 0 0 1 .617-.617h29.459a.62.62 0 0 1 .617.617v2.419a.62.62 0 0 1-.617.617z"/><path d="M9.37 21.728l2.07.342-5.786 35.043-2.07-.342zm17.738 35.046l-2.07.342-5.786-35.043 2.07-.342zM14.291 21.665h2.098v35.519h-2.098z"/><path d="M8.886 54.912h12.921v2.271H8.886zm-.432-33.864h13.773v3.332H8.454z"/><path d="M11.169 18.332h8.343v3.332h-8.343z"/><path d="M13.316 15.247h4.11v3.702h-4.11zM9.417 25.824h11.848v.74H9.417zm0 6.676h11.848v.74H9.417z"/><path d="M9.818 26.037l11.401 6.16-.352.651-11.401-6.16z"/><path d="M21.222 26.691l-11.401 6.16-.352-.651 11.401-6.16zM8.796 32.772l13.42 6.293-.314.67-13.42-6.293z"/><path d="M22.207 33.442l-13.42 6.293-.314-.67 13.42-6.293zM7.592 39.546l15.814 6.12-.267.691-15.814-6.12z"/><path d="M23.17 40.311L7.597 46.337l-.267-.691 15.572-6.026zM7.28 46.317l17.17 6.047-.246.698-17.17-6.047z"/><path d="M23.649 46.996l-17.45 5.759-.232-.703 17.45-5.759zM7.713 39.177h15.266v.74H7.713z"/><path d="M6.627 45.841h17.438v.74H6.627zm-1.653 6.677h20.734v.74H4.974zM17.228 16.05h-3.764a.62.62 0 0 1-.617-.617v-.309a.62.62 0 0 1 .617-.617h3.764a.62.62 0 0 1 .617.617v.309a.62.62 0 0 1-.617.617zm-6.651 38.319h1.975v.531h-1.975zm7.552 0h1.975v.531h-1.975zm-2.295-41.035s1.814-5.899 5.43-6.393 3.937 2.777.938 3.641c-2.987.852-6.368 2.752-6.368 2.752zm-1.185.321s0-7.59-3.727-9.256C7.306 2.782 5.825 7.361 8.478 8.595c2.197 1.024 5.862 3.949 6.171 5.06zm.729-2.962s-1.123-6.911.469-9.565c1.58-2.653 5.467-.197 3.678 2.925l-4.147 6.64z"/></g></symbol></svg>