<svg xmlns="http://www.w3.org/2000/svg" xmlns:xlink="http://www.w3.org/1999/xlink" viewBox="0 0 46 41" fill="#fff" fill-rule="evenodd" stroke="#000" stroke-linecap="round" stroke-linejoin="round"><use xlink:href="#A" x=".5" y=".5"/><symbol id="A" overflow="visible"><g fill="#231f20" fill-rule="nonzero" stroke="none"><path d="M34.938.026l-1.74.926c-.58.309 1.962 6.294 2.962 8.182s6.393 10.256 7.775 9.515.555-7.516-2.024-12.021C39.332 2.137 35.518-.282 34.938.026z"/><path d="M38.705 10.756L5.509 28.447l-2.473-4.64L36.233 6.116zm3.663 6.523h1.777v2.629h-1.777z"/><path d="M33.112 37.568l-7.985-19.524.012-.012-.012-.012-.309-.74-.753.309-.753-.309-.309.74-.012.012.012.012-7.985 19.512h-1.925v1.765h21.56v-1.765H33.11zm-9.059-16.92l2.9 7.072h-5.788l2.888-7.072zm-6.911 16.92l3.419-8.355h6.998l3.419 8.355H17.142zM3.036 23.808l-1.58 4.64h4.048z"/><path d="M2.789 27.473h1.382v3.048H2.789z"/><path d="M1.456 30.115h4.06v1.567h-4.06zm-.777 5.442h5.862l1.79 1.728v2.036H0V37.1z"/><path d="M1.901 30.892h.494v5.64h-.494zm1.592 0h.494v5.64h-.494zm1.086 0h.494v5.64h-.494z"/></g><path d="M4.171 24.437l30.853-16.71.494.913-30.94 16.686z" fill-rule="nonzero" stroke="none"/><g fill="#231f20"><path d="M42.911 19.081h.765v20.24h-.765zm-23.066 1.728l-6.775 16.76v1.752h-1.086v-1.876l6.257-15.785z" fill-rule="nonzero" stroke="none"/><path d="M13.329 35.557h2.579v.666h-2.579zm.864-2.086h2.579v.666h-2.579zm.765-2.135h2.579v.666h-2.579zm.962-2.135h2.579v.666H15.92zm.864-2.061h2.579v.666h-2.579zm.938-2.147h2.579v.666h-2.579zm.827-1.851h2.579v.666h-2.579zm.815-2.061h2.579v.666h-2.579z" fill-rule="nonzero" stroke="none"/></g></symbol></svg>